<?xml version="1.0" encoding="UTF-8" standalone="no"?>
<svg width="751px" height="150px" viewBox="0 0 751 150" version="1.1" xmlns="http://www.w3.org/2000/svg" xmlns:xlink="http://www.w3.org/1999/xlink" xmlns:sketch="http://www.bohemiancoding.com/sketch/ns">
    <!-- Generator: Sketch 3.3.3 (12081) - http://www.bohemiancoding.com/sketch -->
    <title>blanc + logo_blanc</title>
    <desc>Created with Sketch.</desc>
    <defs></defs>
    <g id="Page-1" stroke="none" stroke-width="1" fill="none" fill-rule="evenodd" sketch:type="MSPage">
        <g id="blanc-+-logo_blanc" sketch:type="MSLayerGroup" transform="translate(5.000000, 5.000000)">
            <g id="blanc" transform="translate(180.000000, 37.000000)" sketch:type="MSShapeGroup">
                <g id="Group">
                    <path d="M80.5,76.6 L58.7,27.5 L35.8,76.6 L0.9,0.9 L12.9,0.9 L35.8,49.1 L58.7,0.9 L80.5,49.1 L103.5,0.9 L116.6,0.9 L80.5,76.6 L80.5,76.6 Z" id="Shape" fill="#FFFFFF"></path>
                    <path d="M303.9,76.3 C293.5,76.3 283.9,71.9 278.7,65.5 L278.7,65.2 L283.5,57.9 C287.2,62.8 294.4,66.5 304,67.1 L307.1,67.1 C315.4,67.1 322.2,61.6 322.2,54.1 C322.2,46.6 315.7,43.6 307.1,42.4 C305.3,42 303.7,42 301.5,41.6 C289.6,39.5 278.9,33.3 278.9,21.9 C278.9,10.6 289.1,1.1 301.5,1.1 L303.3,1.1 C311.6,1.1 320.5,4.3 324.9,9.4 L319.5,18.4 C314.8,13.8 310.4,11.2 303.3,10.8 L301.5,10.8 C295.1,10.8 289.9,16 289.9,21.9 C289.9,27.6 294.3,30.8 301.5,31.6 C304.5,31.9 306.5,32 307.4,32.1 C321.7,33.8 332.5,41.2 332.5,53.9 C332.5,66.5 321.1,75.7 307.2,76 L303.9,76 L303.9,76.3 L303.9,76.3 Z" id="Shape" fill="#FFFFFF"></path>
                    <path d="M416.9,0.8 L416.9,37.3 L416.9,49.9 C416.5,64.6 403.3,76.4 386.8,76.4 C376.2,76.4 367.1,71.6 361.7,64.3 C361.7,64.3 356.8,57.9 356.8,49.9 L356.8,43.9 L356.8,0.8 L368.3,0.8 L368.3,37.3 L368.3,49.4 C368.3,58.6 376.6,66 386.8,66 C397,66 405.3,58.5 405.3,49.4 L405.3,0.8 L416.9,0.8 L416.9,0.8 Z" id="Shape" fill="#FFFFFF"></path>
                    <path d="M483.9,50.4 L497,76.3 L484.9,76.3 L471.7,54.4 L454,54.4 L454,76.3 L442.8,76.3 L442.8,0.7 L468.2,0.7 C483.9,0.7 496.9,12.6 496.9,27.6 C496.9,37.6 492.6,45.4 483.9,50.4 L483.9,50.4 Z M454,44.5 L467.1,44.5 C477.2,44.5 485.9,36.7 485.9,27.7 C485.9,18.7 477.1,10.7 467.1,10.7 L454,10.7 L454,44.5 L454,44.5 Z" id="Shape" fill="#FFFFFF"></path>
                    <path d="M528.1,11.1 L528.1,34.8 L558.6,34.8 L558.6,44.4 L528.1,44.4 L528.1,76.5 L516.6,76.5 L516.6,0.8 L566,0.8 L566,11.2 L528.1,11.1 L528.1,11.1 Z" id="Shape" fill="#FFFFFF"></path>
                    <g transform="translate(209.000000, 6.000000)" id="Shape" stroke="#2532C4" stroke-width="10">
                        <path d="M0.2,0.1 L50.1,0.1"></path>
                        <path d="M0.2,33.1 L50.1,33.1"></path>
                        <path d="M0.2,65.2 L50.1,65.2"></path>
                    </g>
                    <g transform="translate(135.000000, 6.000000)" id="Shape" stroke="#FFFFFF" stroke-width="10">
                        <path d="M0.1,0.1 L49.9,0.1"></path>
                        <path d="M0.1,33.1 L49.9,33.1"></path>
                        <path d="M0.1,65.2 L49.9,65.2"></path>
                    </g>
                </g>
            </g>
            <g id="logo_blanc" stroke-width="10" sketch:type="MSShapeGroup">
                <g id="Group">
                    <path d="M8.98425197,36 L130.07874,36" id="Shape" stroke="#FFFFFF"></path>
                    <path d="M9.81102362,102 L129.692913,102" id="Shape" stroke="#2532C4"></path>
                    <path d="M0.881889764,70 L138.677165,70" id="Shape" stroke="#FFFFFF"></path>
                    <circle id="Oval" stroke="#FFFFFF" cx="69.7795276" cy="70.0551181" r="69.7244094"></circle>
                </g>
            </g>
        </g>
    </g>
</svg>